<?xml version="1.0" encoding="UTF-8"?>
<svg xmlns="http://www.w3.org/2000/svg" xmlns:se="https://standardebooks.org/vocab/1.0" version="1.1" viewBox="0 0 1400 340" se:generated-from="fb3619fc0676698db955302661d00e8f97423611">
	<path d="M 212.79536,80.692166 212.9825,80.692166 243.67346,128.60001 261.26462,128.60001 261.26462,51.404756 243.67346,51.404756 243.67346,99.312596 243.48632,99.312596 212.79536,51.404756 195.2042,51.404756 195.2042,128.60001 212.79536,128.60001 212.79536,80.692166 Z"/>
	<path d="M 274.04701,89.955596 C 274.04701,112.50597 290.14105,130.00356 312.97213,130.00356 335.14822,130.00356 351.80368,112.50597 351.80368,89.955596 351.80368,67.405226 334.39966,50.001206 312.97213,50.001206 291.73174,50.001206 274.04701,67.405226 274.04701,89.955596 Z M 293.04172,89.955596 C 293.04172,78.446486 299.40448,66.937376 312.97213,66.937376 326.63335,66.937376 332.80897,78.446486 332.80897,89.955596 332.80897,101.46471 327.00763,112.97382 312.97213,112.97382 298.56235,112.97382 293.04172,101.46471 293.04172,89.955596 Z"/>
	<path d="M 364.5656,51.404756 364.5656,128.60001 382.15676,128.60001 382.15676,98.096186 405.7364,128.60001 428.09963,128.60001 401.52575,96.692636 C 410.97632,93.698396 417.33908,85.932086 417.33908,74.329406 417.33908,59.171066 406.48496,51.404756 392.16875,51.404756 L 364.5656,51.404756 Z M 382.15676,85.651376 382.15676,65.440256 384.2153,65.440256 C 390.85877,65.440256 398.81222,65.908106 398.81222,75.545816 398.81222,85.183526 390.85877,85.651376 384.2153,85.651376 L 382.15676,85.651376 Z"/>
	<path d="M 428.11556,66.843806 446.45528,66.843806 446.45528,128.60001 464.04644,128.60001 464.04644,66.843806 482.38616,66.843806 482.38616,51.404756 428.11556,51.404756 428.11556,66.843806 Z"/>
	<path d="M 511.31229,97.628336 536.20191,97.628336 536.20191,128.60001 553.79307,128.60001 553.79307,51.404756 536.20191,51.404756 536.20191,82.189286 511.31229,82.189286 511.31229,51.404756 493.72113,51.404756 493.72113,128.60001 511.31229,128.60001 511.31229,97.628336 Z"/>
	<path d="M 597.11863,89.955596 C 597.11863,112.50597 613.21267,130.00356 636.04375,130.00356 658.21984,130.00356 674.8753,112.50597 674.8753,89.955596 674.8753,67.405226 657.47128,50.001206 636.04375,50.001206 614.80336,50.001206 597.11863,67.405226 597.11863,89.955596 Z M 616.11334,89.955596 C 616.11334,78.446486 622.4761,66.937376 636.04375,66.937376 649.70497,66.937376 655.88059,78.446486 655.88059,89.955596 655.88059,101.46471 650.07925,112.97382 636.04375,112.97382 621.63397,112.97382 616.11334,101.46471 616.11334,89.955596 Z"/>
	<path d="M 732.2701,51.404756 687.63721,51.404756 687.63721,128.60001 705.22837,128.60001 705.22837,97.628336 730.21156,97.628336 730.21156,82.189286 705.22837,82.189286 705.22837,66.843806 732.2701,66.843806 732.2701,51.404756 Z"/>
	<path d="M 776.22141,51.404756 776.22141,128.60001 805.50882,128.60001 C 821.50929,128.60001 830.77272,119.80443 830.77272,107.07891 830.77272,94.634096 823.94211,89.300606 814.3044,87.616346 820.8543,84.247826 823.94211,78.165776 823.94211,71.054456 823.94211,56.363966 813.46227,51.404756 800.17533,51.404756 L 776.22141,51.404756 Z M 793.81257,81.627866 793.81257,64.972406 795.21612,64.972406 C 802.88886,64.972406 806.91237,67.311656 806.91237,72.832286 806.91237,79.288616 802.79529,81.627866 795.21612,81.627866 L 793.81257,81.627866 Z M 793.81257,115.03236 793.81257,96.786206 799.3332,96.786206 C 807.66093,96.786206 812.24586,99.312596 812.24586,106.42392 812.24586,112.50597 807.66093,115.03236 799.3332,115.03236 L 793.81257,115.03236 Z"/>
	<path d="M 840.07841,89.955596 C 840.07841,112.50597 856.17245,130.00356 879.00353,130.00356 901.17962,130.00356 917.83508,112.50597 917.83508,89.955596 917.83508,67.405226 900.43106,50.001206 879.00353,50.001206 857.76314,50.001206 840.07841,67.405226 840.07841,89.955596 Z M 859.07312,89.955596 C 859.07312,78.446486 865.43588,66.937376 879.00353,66.937376 892.66475,66.937376 898.84037,78.446486 898.84037,89.955596 898.84037,101.46471 893.03903,112.97382 879.00353,112.97382 864.59375,112.97382 859.07312,101.46471 859.07312,89.955596 Z"/>
	<path d="M 959.04224,50.001206 C 946.59743,50.001206 933.87191,59.171066 933.87191,73.580846 933.87191,81.627866 939.29897,88.832756 948.5624,93.417686 957.73226,98.002616 965.96642,100.52901 965.96642,106.14321 965.96642,113.3481 958.66796,113.72238 954.83159,113.72238 946.22315,113.72238 935.93045,105.02037 935.93045,105.02037 L 927.13487,119.80443 C 927.13487,119.80443 938.08256,130.00356 956.14157,130.00356 971.20634,130.00356 985.24184,123.54723 985.24184,105.11394 985.24184,95.008376 975.79127,87.709916 967.18283,84.060686 958.38725,80.317886 951.08879,77.230076 951.08879,72.925856 951.08879,68.715206 954.27017,66.001676 960.25865,66.001676 968.2121,66.001676 975.88484,71.335166 975.88484,71.335166 L 982.99616,57.299666 C 982.99616,57.299666 973.07774,50.001206 959.04224,50.001206 Z"/>
	<path d="M 989.02984,66.843806 1007.3696,66.843806 1007.3696,128.60001 1024.9607,128.60001 1024.9607,66.843806 1043.3004,66.843806 1043.3004,51.404756 989.02984,51.404756 989.02984,66.843806 Z"/>
	<path d="M 1048.2492,89.955596 C 1048.2492,112.50597 1064.3433,130.00356 1087.1744,130.00356 1109.3505,130.00356 1126.0059,112.50597 1126.0059,89.955596 1126.0059,67.405226 1108.6019,50.001206 1087.1744,50.001206 1065.934,50.001206 1048.2492,67.405226 1048.2492,89.955596 Z M 1067.244,89.955596 C 1067.244,78.446486 1073.6067,66.937376 1087.1744,66.937376 1100.8356,66.937376 1107.0112,78.446486 1107.0112,89.955596 1107.0112,101.46471 1101.2099,112.97382 1087.1744,112.97382 1072.7646,112.97382 1067.244,101.46471 1067.244,89.955596 Z"/>
	<path d="M 1156.359,80.692166 1156.5462,80.692166 1187.2371,128.60001 1204.8283,128.60001 1204.8283,51.404756 1187.2371,51.404756 1187.2371,99.312596 1187.05,99.312596 1156.359,51.404756 1138.7679,51.404756 1138.7679,128.60001 1156.359,128.60001 1156.359,80.692166 Z"/>
	<path d="M 402.4008,231.05151 402.4008,288.95001 415.59464,288.95001 415.59464,266.07133 433.28,288.95001 450.05302,288.95001 430.1219,265.01863 C 437.21008,262.77287 441.98232,256.94793 441.98232,248.24561 441.98232,236.87645 433.84144,231.05151 423.1039,231.05151 L 402.4008,231.05151 Z M 415.59464,256.73739 415.59464,241.57851 417.1386,241.57851 C 422.12138,241.57851 428.08668,241.92941 428.08668,249.15795 428.08668,256.38649 422.12138,256.73739 417.1386,256.73739 L 415.59464,256.73739 Z"/>
	<path d="M 455.10895,259.96567 C 455.10895,276.87905 467.17991,290.00271 484.30383,290.00271 500.93649,290.00271 513.42853,276.87905 513.42853,259.96567 513.42853,243.05229 500.37505,229.99881 484.30383,229.99881 468.37297,229.99881 455.10895,243.05229 455.10895,259.96567 Z M 469.35549,259.96567 C 469.35549,251.33353 474.12773,242.70139 484.30383,242.70139 494.55011,242.70139 499.18199,251.33353 499.18199,259.96567 499.18199,268.59781 494.83083,277.22995 484.30383,277.22995 473.49611,277.22995 469.35549,268.59781 469.35549,259.96567 Z"/>
	<path d="M 524.25018,231.05151 524.25018,288.95001 546.21652,288.95001 C 558.2173,288.95001 565.16512,282.35309 565.16512,272.80861 565.16512,263.47467 560.04198,259.47441 552.81344,258.21117 557.72604,255.68469 560.04198,251.12299 560.04198,245.78931 560.04198,234.77105 552.18182,231.05151 542.21626,231.05151 L 524.25018,231.05151 Z M 537.44402,253.71965 537.44402,241.22761 538.49672,241.22761 C 544.25148,241.22761 547.26922,242.98211 547.26922,247.12273 547.26922,251.96515 544.1813,253.71965 538.49672,253.71965 L 537.44402,253.71965 Z M 537.44402,278.77391 537.44402,265.08881 541.58464,265.08881 C 547.83066,265.08881 551.26948,266.98367 551.26948,272.31735 551.26948,276.87905 547.83066,278.77391 541.58464,278.77391 L 537.44402,278.77391 Z"/>
	<path d="M 609.11613,231.05151 575.99117,231.05151 575.99117,288.95001 609.11613,288.95001 609.11613,277.37031 589.18501,277.37031 589.18501,265.72043 608.27397,265.72043 608.27397,254.14073 589.18501,254.14073 589.18501,242.63121 609.11613,242.63121 609.11613,231.05151 Z"/>
	<path d="M 621.70103,231.05151 621.70103,288.95001 634.89487,288.95001 634.89487,266.07133 652.58023,288.95001 669.35325,288.95001 649.42213,265.01863 C 656.51031,262.77287 661.28255,256.94793 661.28255,248.24561 661.28255,236.87645 653.14167,231.05151 642.40413,231.05151 L 621.70103,231.05151 Z M 634.89487,256.73739 634.89487,241.57851 636.43883,241.57851 C 641.42161,241.57851 647.38691,241.92941 647.38691,249.15795 647.38691,256.38649 641.42161,256.73739 636.43883,256.73739 L 634.89487,256.73739 Z"/>
	<path d="M 670.61509,242.63121 684.37037,242.63121 684.37037,288.95001 697.56421,288.95001 697.56421,242.63121 711.31949,242.63121 711.31949,231.05151 670.61509,231.05151 670.61509,242.63121 Z"/>
	<path d="M 778.73659,231.05151 745.26073,231.05151 745.26073,288.95001 758.45457,288.95001 758.45457,265.72043 777.19263,265.72043 777.19263,254.14073 758.45457,254.14073 758.45457,242.63121 778.73659,242.63121 778.73659,231.05151 Z"/>
	<path d="M 790.01112,231.05151 790.01112,288.95001 803.20496,288.95001 803.20496,266.07133 820.89032,288.95001 837.66334,288.95001 817.73222,265.01863 C 824.8204,262.77287 829.59264,256.94793 829.59264,248.24561 829.59264,236.87645 821.45176,231.05151 810.71422,231.05151 L 790.01112,231.05151 Z M 803.20496,256.73739 803.20496,241.57851 804.74892,241.57851 C 809.7317,241.57851 815.697,241.92941 815.697,249.15795 815.697,256.38649 809.7317,256.73739 804.74892,256.73739 L 803.20496,256.73739 Z"/>
	<path d="M 842.71927,259.96567 C 842.71927,276.87905 854.79023,290.00271 871.91415,290.00271 888.54681,290.00271 901.03885,276.87905 901.03885,259.96567 901.03885,243.05229 887.98537,229.99881 871.91415,229.99881 855.98329,229.99881 842.71927,243.05229 842.71927,259.96567 Z M 856.96581,259.96567 C 856.96581,251.33353 861.73805,242.70139 871.91415,242.70139 882.16043,242.70139 886.79231,251.33353 886.79231,259.96567 886.79231,268.59781 882.44115,277.22995 871.91415,277.22995 861.10643,277.22995 856.96581,268.59781 856.96581,259.96567 Z"/>
	<path d="M 933.19521,229.99881 C 923.86127,229.99881 914.31679,236.87645 914.31679,247.68417 914.31679,253.71965 918.38723,259.12351 925.33505,262.56233 932.21269,266.00115 938.38853,267.89601 938.38853,272.10681 938.38853,277.51067 932.91449,277.79139 930.03711,277.79139 923.58055,277.79139 915.86075,271.26465 915.86075,271.26465 L 909.26383,282.35309 C 909.26383,282.35309 917.47489,290.00271 931.01963,290.00271 942.31861,290.00271 952.84561,285.16029 952.84561,271.33483 952.84561,263.75539 945.75743,258.28135 939.30087,255.54433 932.70395,252.73713 927.22991,250.42119 927.22991,247.19291 927.22991,244.03481 929.61603,241.99959 934.10755,241.99959 940.07285,241.99959 945.82761,245.99985 945.82761,245.99985 L 951.16129,235.47285 C 951.16129,235.47285 943.72221,229.99881 933.19521,229.99881 Z"/>
	<path d="M 956.93656,242.63121 970.69184,242.63121 970.69184,288.95001 983.88568,288.95001 983.88568,242.63121 997.64096,242.63121 997.64096,231.05151 956.93656,231.05151 956.93656,242.63121 Z"/>
</svg>
